<?xml version="1.0" encoding="utf-8"?>
<!-- Generator: Adobe Illustrator 19.0.0, SVG Export Plug-In . SVG Version: 6.00 Build 0)  -->
<svg version="1.1" id="Layer_1" xmlns="http://www.w3.org/2000/svg" xmlns:xlink="http://www.w3.org/1999/xlink" x="0px" y="0px"
	 viewBox="0 0 14.6 16.1" style="enable-background:new 0 0 14.6 16.1;" xml:space="preserve">
<style type="text/css">
	.st0{fill:#F065A4;}
	.st1{clip-path:url(#SVGID_2_);fill:#F065A4;}
</style>
<path class="st0" d="M0.5,5.2h12.9v10.4H0.5V5.2z M0,16.1h13.9V4.7H0V16.1z"/>
<g>
	<defs>
		<rect id="SVGID_1_" y="0" width="14.6" height="16.1"/>
	</defs>
	<clipPath id="SVGID_2_">
		<use xlink:href="#SVGID_1_"  style="overflow:visible;"/>
	</clipPath>
	<path class="st1" d="M10.3,4.6c-0.1,0-0.3-0.1-0.3-0.3c0-2.1-1.4-3.9-3.1-3.9c-1.7,0-3.1,1.7-3.1,3.9c0,0.1-0.1,0.3-0.3,0.3
		c-0.1,0-0.3-0.1-0.3-0.3C3.3,2,5,0,6.9,0c2,0,3.6,2,3.6,4.4C10.6,4.5,10.4,4.6,10.3,4.6"/>
	<path class="st1" d="M10.8,4.5L11,3l2.3-2.2l1.4,1.4l-2.3,2.2L10.8,4.5z M11.4,3.2L11.4,4l0.8-0.1l1.8-1.8l-0.7-0.7L11.4,3.2z"/>
</g>
</svg>
