<?xml version="1.0" encoding="utf-8"?>
<!-- Generator: Adobe Illustrator 19.0.0, SVG Export Plug-In . SVG Version: 6.00 Build 0)  -->
<svg version="1.1" id="Layer_1" xmlns="http://www.w3.org/2000/svg" xmlns:xlink="http://www.w3.org/1999/xlink" x="0px" y="0px"
	 viewBox="0 0 19.8 17.3" style="enable-background:new 0 0 19.8 17.3;" xml:space="preserve">
<style type="text/css">
	.st0{fill:#F065A4;}
	.st1{clip-path:url(#SVGID_2_);fill:#F065A4;}
</style>
<path class="st0" d="M12.9,9.1h3.4v7.6h-3.4V9.1z M12.4,17.3h4.4V8.6h-4.4V17.3z"/>
<path class="st0" d="M10.9,14.5H3V8.6h7.9V14.5z M3.5,14h6.9V9.1H3.5V14z"/>
<rect x="14.5" y="12.9" class="st0" width="0.8" height="0.8"/>
<g>
	<defs>
		<rect id="SVGID_1_" y="0" width="19.8" height="17.3"/>
	</defs>
	<clipPath id="SVGID_2_">
		<use xlink:href="#SVGID_1_"  style="overflow:visible;"/>
	</clipPath>
	<path class="st1" d="M18.4,17.3H1.5v-10C1.5,7.1,1.6,7,1.7,7C1.9,7,2,7.1,2,7.3v9.5h15.9V7.5c0-0.1,0.1-0.3,0.3-0.3
		c0.1,0,0.3,0.1,0.3,0.3V17.3z"/>
	<path class="st1" d="M11.9,8.5c-1,0-2-0.5-2.6-1.4C8.8,7.9,7.9,8.4,7,8.4c-1.1,0-2.1-0.6-2.6-1.6C3.7,7.5,2.6,7.9,1.6,7.5
		C0.7,7.1,0,6.2,0,5.2C0,4.6,0.2,4,0.6,3.5L2,0l15.9,0.3l2,3.8V5c0,1.1-0.6,2.2-1.6,2.7c-0.5,0.3-1,0.4-1.5,0.4
		c-0.9,0-1.7-0.3-2.2-1C13.9,8,13,8.5,11.9,8.5 M9.3,6l0.2,0.5C10,7.4,10.9,8,11.9,8c1,0,1.9-0.5,2.3-1.4l0.2-0.4l0.2,0.3
		c0.5,0.7,1.3,1,2.1,1c0.4,0,0.9-0.1,1.3-0.3l0,0c0.8-0.5,1.3-1.3,1.3-2.3V4.2l-1.8-3.4L2.3,0.5L1,3.8C0.7,4.2,0.5,4.7,0.5,5.2
		C0.5,6,1,6.7,1.8,7C2.7,7.4,3.8,7,4.2,6.1l0.3-0.5l0.2,0.6C5,7.2,5.9,7.9,7,7.9c0.9,0,1.8-0.5,2.2-1.4L9.3,6z"/>
	<rect x="4.6" y="0.5" transform="matrix(0.9918 0.128 -0.128 0.9918 0.4701 -0.5898)" class="st1" width="0.5" height="5.8"/>
	
		<rect x="9.4" y="0.5" transform="matrix(0.9952 9.792027e-002 -9.792027e-002 0.9952 0.3953 -0.9263)" class="st1" width="0.5" height="6.1"/>
	<rect x="10.8" y="3.3" transform="matrix(0.1517 0.9884 -0.9884 0.1517 15.4105 -10.7617)" class="st1" width="6.3" height="0.5"/>
	<path class="st1" d="M19.5,4.3L19.5,4.3L0.8,4.1C0.7,4.1,0.6,4,0.6,3.9c0-0.1,0.1-0.2,0.3-0.2h0l18.7,0.1c0.1,0,0.2,0.1,0.2,0.3
		C19.7,4.2,19.6,4.3,19.5,4.3"/>
</g>
</svg>
