<?xml version="1.0" encoding="utf-8"?>
<!-- Generator: Adobe Illustrator 19.0.0, SVG Export Plug-In . SVG Version: 6.00 Build 0)  -->
<svg version="1.1" id="Layer_1" xmlns="http://www.w3.org/2000/svg" xmlns:xlink="http://www.w3.org/1999/xlink" x="0px" y="0px"
	 viewBox="0 0 14 15.7" style="enable-background:new 0 0 14 15.7;" xml:space="preserve">
<style type="text/css">
	.st0{fill:#F065A4;}
	.st1{clip-path:url(#SVGID_2_);fill:#F065A4;}
</style>
<rect x="0.3" y="15.4" class="st0" width="13.5" height="0.4"/>
<g>
	<defs>
		<rect id="SVGID_1_" y="0" width="14" height="15.7"/>
	</defs>
	<clipPath id="SVGID_2_">
		<use xlink:href="#SVGID_1_"  style="overflow:visible;"/>
	</clipPath>
	<path class="st1" d="M7.7,7C7.6,7,7.5,6.9,7.5,6.7v-4h-1v4C6.5,6.9,6.4,7,6.2,7S6,6.9,6,6.7V2.2h2v4.5C8,6.9,7.9,7,7.7,7"/>
	<path class="st1" d="M3.9,7C3.7,7,3.6,6.9,3.6,6.7v-4h-1v4C2.6,6.9,2.5,7,2.4,7S2.1,6.9,2.1,6.7V2.2h2v4.5C4.1,6.9,4,7,3.9,7"/>
	<path class="st1" d="M11.6,7c-0.1,0-0.3-0.1-0.3-0.3v-4h-1v4c0,0.1-0.1,0.3-0.3,0.3C10,7,9.9,6.9,9.9,6.7V2.2h2v4.5
		C11.8,6.9,11.7,7,11.6,7"/>
	<path class="st1" d="M12,15.1H2c-1.1,0-2-0.9-2-2V6.5l0.3-0.1H14v6.7C14,14.2,13.1,15.1,12,15.1 M0.5,7v6.2c0,0.8,0.7,1.5,1.5,1.5
		h10c0.8,0,1.5-0.7,1.5-1.5V7H0.5z"/>
	<path class="st1" d="M1.2,9.6c-0.4,0-0.8-0.1-1.1-0.4C0,9.1,0,8.9,0.1,8.8c0.1-0.1,0.2-0.1,0.4,0C0.6,9,0.9,9.1,1.2,9.1
		c0.7,0,1.2-0.5,1.2-1.2c0-0.1,0.1-0.3,0.3-0.3s0.3,0.1,0.3,0.3C2.9,8.8,2.1,9.6,1.2,9.6"/>
	<path class="st1" d="M0.2,7c0,0-0.1,0-0.1,0C0,6.9,0,6.7,0,6.6c0.1-0.1,0.1-0.1,0.2-0.1c0.1-0.1,0.3,0,0.3,0.1
		c0.1,0.1,0,0.3-0.1,0.3C0.4,7,0.3,7,0.2,7"/>
	<path class="st1" d="M4.1,9.6c-0.9,0-1.7-0.8-1.7-1.7c0-0.1,0.1-0.3,0.3-0.3s0.3,0.1,0.3,0.3c0,0.7,0.5,1.2,1.2,1.2
		s1.2-0.5,1.2-1.2c0-0.1,0.1-0.3,0.3-0.3s0.3,0.1,0.3,0.3C5.8,8.8,5,9.6,4.1,9.6"/>
	<path class="st1" d="M7,9.6C6,9.6,5.3,8.8,5.3,7.9c0-0.1,0.1-0.3,0.3-0.3s0.3,0.1,0.3,0.3c0,0.7,0.5,1.2,1.2,1.2s1.2-0.5,1.2-1.2
		c0-0.1,0.1-0.3,0.3-0.3c0.1,0,0.3,0.1,0.3,0.3C8.7,8.8,7.9,9.6,7,9.6"/>
	<path class="st1" d="M9.9,9.6c-0.9,0-1.7-0.8-1.7-1.7c0-0.1,0.1-0.3,0.3-0.3c0.1,0,0.3,0.1,0.3,0.3c0,0.7,0.5,1.2,1.2,1.2
		c0.7,0,1.2-0.5,1.2-1.2c0-0.1,0.1-0.3,0.3-0.3c0.1,0,0.3,0.1,0.3,0.3C11.6,8.8,10.8,9.6,9.9,9.6"/>
	<path class="st1" d="M13.8,7.1c-0.1,0-0.2,0-0.2-0.1c-0.1-0.1-0.2-0.2-0.1-0.3c0.1-0.1,0.2-0.2,0.3-0.1c0.1,0,0.1,0.1,0.2,0.2
		C14,6.8,14,6.9,13.9,7C13.9,7,13.8,7.1,13.8,7.1"/>
	<path class="st1" d="M12.8,9.6c-0.9,0-1.7-0.8-1.7-1.7c0-0.1,0.1-0.3,0.3-0.3c0.1,0,0.3,0.1,0.3,0.3c0,0.7,0.5,1.2,1.2,1.2
		c0.3,0,0.6-0.1,0.8-0.3c0.1-0.1,0.3-0.1,0.4,0C14,8.9,14,9,13.9,9.1C13.6,9.4,13.2,9.6,12.8,9.6"/>
	<path class="st1" d="M3.1,1.7c-0.4,0-0.6-0.3-0.6-0.6c0-0.3,0.5-0.9,0.5-1L3.1,0l0.1,0.1c0.1,0.1,0.5,0.6,0.5,1
		C3.8,1.4,3.5,1.7,3.1,1.7 M3.1,0.4C2.9,0.6,2.7,0.9,2.7,1.1c0,0.2,0.2,0.4,0.4,0.4c0.2,0,0.4-0.2,0.4-0.4C3.5,0.9,3.3,0.6,3.1,0.4"
		/>
	<path class="st1" d="M7,1.7c-0.4,0-0.6-0.3-0.6-0.6c0-0.3,0.5-0.9,0.5-1L7,0l0.1,0.1c0.1,0.1,0.5,0.6,0.5,1C7.6,1.4,7.4,1.7,7,1.7
		 M7,0.4C6.8,0.6,6.6,0.9,6.6,1.1c0,0.2,0.2,0.4,0.4,0.4c0.2,0,0.4-0.2,0.4-0.4C7.4,0.9,7.2,0.6,7,0.4"/>
	<path class="st1" d="M10.9,1.7c-0.4,0-0.6-0.3-0.6-0.6c0-0.3,0.5-0.9,0.5-1L10.9,0l0.1,0.1c0.1,0.1,0.5,0.6,0.5,1
		C11.5,1.4,11.2,1.7,10.9,1.7 M10.9,0.4c-0.2,0.2-0.4,0.5-0.4,0.7c0,0.2,0.2,0.4,0.4,0.4c0.2,0,0.4-0.2,0.4-0.4
		C11.2,0.9,11,0.6,10.9,0.4"/>
</g>
</svg>
