<?xml version="1.0" encoding="utf-8"?>
<!-- Generator: Adobe Illustrator 19.0.0, SVG Export Plug-In . SVG Version: 6.00 Build 0)  -->
<svg version="1.1" id="Layer_1" xmlns="http://www.w3.org/2000/svg" xmlns:xlink="http://www.w3.org/1999/xlink" x="0px" y="0px"
	 viewBox="0 0 20.3 18.8" style="enable-background:new 0 0 20.3 18.8;" xml:space="preserve">
<style type="text/css">
	.st0{clip-path:url(#SVGID_2_);fill:#F065A4;}
</style>
<g>
	<defs>
		<rect id="SVGID_1_" y="0" width="20.3" height="18.8"/>
	</defs>
	<clipPath id="SVGID_2_">
		<use xlink:href="#SVGID_1_"  style="overflow:visible;"/>
	</clipPath>
	<path class="st0" d="M0.3,15.8c0,0-0.1,0-0.1,0C0,15.7,0,15.6,0,15.4l0.1-0.1c0.1-0.1,0.2-0.3,0.3-0.4c1.3-1.8,3.4-3.1,5.8-3.7
		c0.1,0,0.3,0,0.3,0.2c0,0.1,0,0.3-0.2,0.3C4,12.3,2,13.5,0.8,15.2c-0.1,0.1-0.2,0.3-0.3,0.4l-0.1,0.1C0.4,15.8,0.3,15.8,0.3,15.8"
		/>
	<path class="st0" d="M13.2,12C13.2,12,13.2,12,13.2,12c-0.7-0.2-1.3-0.4-2-0.5c-0.1,0-0.2-0.1-0.2-0.3c0-0.1,0.2-0.2,0.3-0.2
		c0.7,0.1,1.4,0.3,2,0.5c0.1,0,0.2,0.2,0.2,0.3C13.4,11.9,13.3,12,13.2,12"/>
	<path class="st0" d="M10.1,17.3H0v-1.7c0-0.1,0.1-0.3,0.3-0.3c0.1,0,0.3,0.1,0.3,0.3v1.2h9.6c0.1,0,0.3,0.1,0.3,0.3
		C10.4,17.2,10.3,17.3,10.1,17.3"/>
	<path class="st0" d="M16.2,18.8c-0.1,0-0.2-0.1-0.2-0.2c-0.1-0.1,0-0.3,0.1-0.3c0,0,3.7-1.6,3.7-4.6c0-1.2-0.9-2.2-2.1-2.2
		c-0.5,0-1,0.2-1.4,0.6c-0.1,0.1-0.3,0.1-0.4,0c-0.1-0.1-0.1-0.3,0-0.4c0.5-0.4,1.1-0.7,1.7-0.7c1.4,0,2.6,1.2,2.6,2.7
		C20.3,17,16.4,18.7,16.2,18.8C16.2,18.7,16.2,18.8,16.2,18.8"/>
	<path class="st0" d="M16.2,18.8C16.1,18.8,16.1,18.7,16.2,18.8c-0.1,0-1.3-0.5-2.4-1.5C12.6,16.2,12,15,12,13.7
		c0-0.9,0.4-1.7,1.1-2.1c0.4-0.3,1-0.5,1.5-0.5c0.6,0,1.2,0.2,1.7,0.7c0.1,0.1,0.1,0.3,0,0.4c-0.1,0.1-0.3,0.1-0.4,0
		c-0.4-0.4-0.9-0.6-1.4-0.6c-0.4,0-0.9,0.1-1.2,0.4c-0.5,0.4-0.9,1.1-0.9,1.7c0,1.2,0.5,2.3,1.6,3.2c1,0.9,2.1,1.4,2.1,1.4
		c0.1,0.1,0.2,0.2,0.1,0.3C16.4,18.7,16.3,18.8,16.2,18.8"/>
	<path class="st0" d="M8.7,10.5c-0.9,0-1.9-0.3-2.6-0.9C4.8,8.6,4,7,4,5.3c0-1,0.3-2,0.7-2.8C5.6,0.9,7.1,0,8.7,0
		c1.7,0,3.2,1,4.1,2.6c0.4,0.8,0.7,1.7,0.7,2.7c0,1.8-0.8,3.4-2.1,4.4C10.6,10.2,9.7,10.5,8.7,10.5 M8.7,0.5C7.3,0.5,6,1.3,5.2,2.7
		C4.7,3.5,4.5,4.3,4.5,5.3c0,1.6,0.7,3.1,1.9,4c1.4,1,3.3,1,4.7,0c1.2-0.9,1.9-2.4,1.9-4c0-0.9-0.2-1.7-0.6-2.4l0,0
		C11.6,1.4,10.2,0.5,8.7,0.5"/>
	<path class="st0" d="M11.2,11.5c-0.1,0-0.3-0.1-0.3-0.3V9.4c0-0.1,0.1-0.3,0.3-0.3c0.1,0,0.3,0.1,0.3,0.3v1.8
		C11.5,11.4,11.4,11.5,11.2,11.5"/>
	<path class="st0" d="M6.2,11.7c-0.1,0-0.3-0.1-0.3-0.3v-2c0-0.1,0.1-0.3,0.3-0.3c0.1,0,0.3,0.1,0.3,0.3v2
		C6.5,11.6,6.4,11.7,6.2,11.7"/>
	<path class="st0" d="M7.5,4.8C7,4.8,6.5,4.7,6.1,4.4c-0.7-0.4-1.2-1-1.4-1.8l0-0.1c0-0.1,0.1-0.3,0.2-0.3c0.1,0,0.2,0.1,0.2,0.2
		c0,0,0,0,0,0C5.4,3.2,5.8,3.7,6.4,4c0.5,0.3,1.1,0.4,1.7,0.2c0.5-0.2,1-0.5,1.3-1C9.5,3,9.6,3,9.7,3.1c0.1,0.1,0.2,0.2,0.1,0.3
		C9.4,4,8.9,4.5,8.2,4.7C8,4.7,7.7,4.8,7.5,4.8"/>
	<path class="st0" d="M10.8,3.8c-0.4,0-0.9-0.1-1.3-0.3C9.4,3.5,9.3,3.3,9.4,3.2C9.4,3.1,9.6,3,9.7,3.1c0.6,0.3,1.1,0.3,1.7,0.2
		c0.4-0.1,0.8-0.4,1.1-0.7c0.1-0.1,0.2-0.1,0.4,0c0.1,0.1,0.1,0.2,0,0.4c-0.3,0.4-0.8,0.7-1.3,0.9C11.3,3.8,11,3.8,10.8,3.8"/>
</g>
</svg>
