<?xml version="1.0" encoding="utf-8"?>
<!-- Generator: Adobe Illustrator 19.0.0, SVG Export Plug-In . SVG Version: 6.00 Build 0)  -->
<svg version="1.1" id="Layer_1" xmlns="http://www.w3.org/2000/svg" xmlns:xlink="http://www.w3.org/1999/xlink" x="0px" y="0px"
	 viewBox="0 0 19.9 18.2" style="enable-background:new 0 0 19.9 18.2;" xml:space="preserve">
<style type="text/css">
	.st0{clip-path:url(#SVGID_2_);fill:#F065A4;}
</style>
<g>
	<defs>
		<rect id="SVGID_1_" y="0" width="19.9" height="18.2"/>
	</defs>
	<clipPath id="SVGID_2_">
		<use xlink:href="#SVGID_1_"  style="overflow:visible;"/>
	</clipPath>
	<path class="st0" d="M12.1,11.7H4c-2.2,0-4-1.8-4-4c0-1.1,0.4-2.1,1.2-2.8C1.9,4,3,3.6,4,3.6h8.1c0.1,0,0.3,0.1,0.3,0.3
		c0,0.1-0.1,0.3-0.3,0.3H4c-0.9,0-1.8,0.4-2.5,1c-0.7,0.7-1,1.6-1,2.5c0,1.9,1.6,3.5,3.5,3.5h8.1c0.1,0,0.3,0.1,0.3,0.3
		C12.4,11.6,12.3,11.7,12.1,11.7"/>
	<path class="st0" d="M18.3,15.3L12,11.7c-0.1-0.1-0.2-0.2-0.1-0.3c0.1-0.1,0.2-0.2,0.3-0.1l5.5,3.2V0.9l-5.5,3.2
		c-0.1,0.1-0.3,0-0.3-0.1c-0.1-0.1,0-0.3,0.1-0.3L18.3,0V15.3z"/>
	<path class="st0" d="M18.3,9.7c-0.2,0-0.3,0-0.4-0.1c-0.1-0.1-0.2-0.2-0.1-0.3s0.2-0.2,0.3-0.1c0,0,0.1,0,0.2,0
		c0.6,0,1.1-0.7,1.1-1.6c0-0.9-0.5-1.6-1.1-1.6c-0.1,0-0.1,0-0.2,0c-0.1,0.1-0.3,0-0.3-0.1c-0.1-0.1,0-0.3,0.1-0.3
		c0.1-0.1,0.3-0.1,0.4-0.1c0.9,0,1.6,0.9,1.6,2.1C19.9,8.8,19.2,9.7,18.3,9.7"/>
	<path class="st0" d="M9.8,18.2c0,0-0.1,0-0.1,0c-3.8-1.9-3.7-6.6-3.7-6.8V3.9c0-0.1,0.1-0.3,0.3-0.3c0.1,0,0.3,0.1,0.3,0.3v7.6
		c0,0,0,4.5,3.5,6.3c0.1,0.1,0.2,0.2,0.1,0.3C10,18.2,9.9,18.2,9.8,18.2"/>
</g>
</svg>
