<?xml version="1.0" encoding="utf-8"?>
<!-- Generator: Adobe Illustrator 19.0.0, SVG Export Plug-In . SVG Version: 6.00 Build 0)  -->
<svg version="1.1" id="Layer_1" xmlns="http://www.w3.org/2000/svg" xmlns:xlink="http://www.w3.org/1999/xlink" x="0px" y="0px"
	 viewBox="0 0 19.2 18.7" style="enable-background:new 0 0 19.2 18.7;" xml:space="preserve">
<style type="text/css">
	.st0{clip-path:url(#SVGID_2_);fill:#F065A4;}
</style>
<g>
	<defs>
		<rect id="SVGID_1_" y="0" width="19.2" height="18.7"/>
	</defs>
	<clipPath id="SVGID_2_">
		<use xlink:href="#SVGID_1_"  style="overflow:visible;"/>
	</clipPath>
	<path class="st0" d="M17,9.5c0,0-0.1,0-0.1,0c-0.1-0.1-0.2-0.2-0.1-0.3c0.5-1.1,0.7-2.3,0.7-3.5c0-2.8-2.2-5.1-5-5.2
		c-2.2-0.1-2.9,1.6-3.2,2.1C9.3,2.7,9.2,2.8,9.2,2.8c-0.1,0.1-0.3,0.1-0.4,0c-0.1-0.1-0.1-0.3,0-0.4c0,0,0,0,0-0.1
		C9.6,0.8,10.7,0,12.4,0c0.1,0,0.1,0,0.1,0C15.6,0.1,18,2.6,18,5.7c0,1.3-0.3,2.5-0.8,3.7C17.2,9.4,17.1,9.5,17,9.5"/>
	<path class="st0" d="M6.6,15.5c0,0-0.1,0-0.1,0c-1-0.6-1.8-1.3-2.6-2C1.3,11.1,0,8.5,0,5.7c0-1.8,0.8-3.5,2.3-4.6
		C3.2,0.4,4.3,0,5.5,0c2.4,0,3.3,1.8,3.6,2.4c0,0.1,0.1,0.1,0.1,0.1c0.1,0.1,0.1,0.2,0,0.3c-0.1,0.1-0.3,0.1-0.4,0
		c-0.1,0-0.1-0.1-0.2-0.2C8.4,2,7.6,0.5,5.5,0.5c-1.1,0-2.1,0.4-2.9,1C1.3,2.5,0.5,4,0.5,5.7c0,2.7,1.3,5.2,3.7,7.4
		C5,13.8,5.8,14.4,6.8,15c0.1,0.1,0.2,0.2,0.1,0.3C6.8,15.4,6.7,15.5,6.6,15.5"/>
	<path class="st0" d="M13.7,18.7c-1.8,0-3.4-0.9-4.4-2.3c-0.7-0.9-1-2-1-3.2c0-3,2.4-5.5,5.5-5.5c1.3,0,2.5,0.4,3.5,1.2l0,0
		c1.3,1,2,2.6,2,4.2C19.2,16.3,16.7,18.7,13.7,18.7 M13.7,8.3c-2.7,0-5,2.2-5,5c0,1,0.3,2,0.9,2.9c0.9,1.3,2.4,2.1,4,2.1
		c2.7,0,5-2.2,5-5c0-1.5-0.7-2.9-1.8-3.9C15.9,8.7,14.8,8.3,13.7,8.3"/>
	<polygon class="st0" points="14.2,13.2 16.7,13.2 16.7,13.7 14.2,13.7 14.2,16.2 13.7,16.2 13.7,13.7 11.2,13.7 11.2,13.2 
		13.7,13.2 13.7,10.6 14.2,10.6 	"/>
</g>
</svg>
